<svg enable-background="new 0 0 36 36" height="512" viewBox="0 0 36 36" width="512" xmlns="http://www.w3.org/2000/svg"><g id="BG"><g><path d="m13.411 34.999c6.298-2.859 12.105-1.559 15.14-2.936 3.035-1.378 8.617-6.016 2.28-19.978s-15.841-12.12-19.18-10.605c-15.632 7.095-9.395 38.582 1.76 33.519z" fill="#efefef"/></g></g><g id="effect"><g><path d="m31.25 6.5c-.827 0-1.5-.673-1.5-1.5s.673-1.5 1.5-1.5 1.5.673 1.5 1.5-.673 1.5-1.5 1.5zm0-2c-.275 0-.5.225-.5.5s.225.5.5.5.5-.225.5-.5-.225-.5-.5-.5z" fill="#a4afc1"/></g><g><g><path d="m6.159 2.858h2v1h-2z" fill="#a4afc1" transform="matrix(.707 -.707 .707 .707 -.278 6.046)"/></g><g><path d="m2.094 6.925h2v1h-2z" fill="#a4afc1" transform="matrix(.707 -.707 .707 .707 -4.344 4.362)"/></g><g><path d="m2.594 2.182h1v2h-1z" fill="#a4afc1" transform="matrix(.707 -.707 .707 .707 -1.344 3.12)"/></g></g></g><g id="color"><g><path d="m27.25 29.25h-18.5c-1.105 0-2-.895-2-2v-18.5c0-1.105.895-2 2-2h18.5c1.105 0 2 .895 2 2v18.5c0 1.105-.895 2-2 2z" fill="#f3f3f1"/></g><g><path d="m14.25 26.25h-3.5c-.552 0-1-.448-1-1v-3.5c0-.552.448-1 1-1h3.5c.552 0 1 .448 1 1v3.5c0 .552-.448 1-1 1z" fill="#2fdf84"/></g></g><g id="shadow"><g><path d="m9 27.25v-18.5c0-1.105.895-2 2-2h-2.25c-1.105 0-2 .895-2 2v18.5c0 1.105.895 2 2 2h2.25c-1.105 0-2-.895-2-2z" fill="#d5dbe1"/></g><g><path d="m12 25.25v-3.5c0-.552.448-1 1-1h-2.25c-.552 0-1 .448-1 1v3.5c0 .552.448 1 1 1h2.25c-.552 0-1-.448-1-1z" fill="#00b871"/></g></g><g id="_x31_.5"><g><g><path d="m27.25 30h-18.5c-1.517 0-2.75-1.233-2.75-2.75v-18.5c0-1.517 1.233-2.75 2.75-2.75h18.5c1.517 0 2.75 1.233 2.75 2.75v18.5c0 1.517-1.233 2.75-2.75 2.75zm-18.5-22.5c-.689 0-1.25.561-1.25 1.25v18.5c0 .689.561 1.25 1.25 1.25h18.5c.689 0 1.25-.561 1.25-1.25v-18.5c0-.689-.561-1.25-1.25-1.25z"/></g></g><g><g><path d="m19.75 11h6.5v1.5h-6.5z"/></g></g><g><g><path d="m19.75 15h6.5v1.5h-6.5z"/></g></g><g><g><path d="m11.607 16.75c-.221 0-.431-.098-.573-.267l-1.857-2.2 1.146-.967 1.284 1.521 4.069-4.82 1.146.967-4.643 5.5c-.141.168-.351.266-.572.266z"/></g></g><g><g><path d="m14.25 27h-3.5c-.965 0-1.75-.785-1.75-1.75v-3.5c0-.965.785-1.75 1.75-1.75h3.5c.965 0 1.75.785 1.75 1.75v3.5c0 .965-.785 1.75-1.75 1.75zm-3.5-5.5c-.138 0-.25.112-.25.25v3.5c0 .138.112.25.25.25h3.5c.138 0 .25-.112.25-.25v-3.5c0-.138-.112-.25-.25-.25z"/></g></g><g><g><path d="m19.75 21h6.5v1.5h-6.5z"/></g></g><g><g><path d="m19.75 25h6.5v1.5h-6.5z"/></g></g></g></svg>