<?xml version="1.0" encoding="iso-8859-1"?>
<!-- Generator: Adobe Illustrator 19.0.0, SVG Export Plug-In . SVG Version: 6.00 Build 0)  -->
<svg version="1.1" id="Capa_1" xmlns="http://www.w3.org/2000/svg" xmlns:xlink="http://www.w3.org/1999/xlink" x="0px" y="0px"
	 viewBox="0 0 496.485 496.485" style="enable-background:new 0 0 496.485 496.485;" xml:space="preserve">
<path style="fill:#FFFFFF;" d="M457.697,7.758H38.788c-17.067,0-31.03,13.964-31.03,31.03v332.8h480.97v-332.8
	C488.727,21.721,474.764,7.758,457.697,7.758z"/>
<path style="fill:#193651;" d="M488.727,379.345H7.758c-4.655,0-7.758-3.103-7.758-7.758v-332.8C0,17.067,17.067,0,38.788,0h418.909
	c21.721,0,38.788,17.067,38.788,38.788v332.8C496.485,376.242,493.382,379.345,488.727,379.345z M15.515,363.83H480.97V38.788
	c0-13.188-10.085-23.273-23.273-23.273H38.788c-13.188,0-23.273,10.085-23.273,23.273V363.83z"/>
<rect x="38.788" y="103.176" style="fill:#E1E6E9;" width="418.909" height="237.382"/>
<rect x="38.788" y="38.788" style="fill:#F16051;" width="418.909" height="64.388"/>
<path style="fill:#E1E6E9;" d="M7.758,371.588v37.236c0,17.067,13.964,31.03,31.03,31.03h418.909c17.067,0,31.03-13.964,31.03-31.03
	v-37.236H7.758z"/>
<path style="fill:#193651;" d="M457.697,447.612H38.788C17.067,447.612,0,430.545,0,408.824v-37.236
	c0-4.655,3.103-7.758,7.758-7.758h480.97c4.655,0,7.758,3.103,7.758,7.758v37.236C496.485,430.545,479.418,447.612,457.697,447.612z
	 M15.515,379.345v29.479c0,13.188,10.085,23.273,23.273,23.273h418.909c13.188,0,23.273-10.085,23.273-23.273v-29.479H15.515z"/>
<rect x="186.182" y="439.855" style="fill:#FFFFFF;" width="124.121" height="48.873"/>
<g>
	<path style="fill:#193651;" d="M310.303,496.485H186.182c-4.655,0-7.758-3.103-7.758-7.758v-48.873
		c0-4.655,3.103-7.758,7.758-7.758h124.121c4.655,0,7.758,3.103,7.758,7.758v48.873
		C318.061,493.382,314.958,496.485,310.303,496.485z M193.939,480.97h108.606v-33.358H193.939V480.97z"/>
	<path style="fill:#193651;" d="M347.539,496.485H148.945c-4.655,0-7.758-3.103-7.758-7.758s3.103-7.758,7.758-7.758h198.594
		c4.655,0,7.758,3.103,7.758,7.758C355.297,493.382,352.194,496.485,347.539,496.485z"/>
	<rect x="198.594" y="397.964" style="fill:#193651;" width="15.515" height="15.515"/>
	<rect x="240.485" y="397.964" style="fill:#193651;" width="15.515" height="15.515"/>
	<rect x="282.376" y="397.964" style="fill:#193651;" width="15.515" height="15.515"/>
	<rect x="79.127" y="63.612" style="fill:#193651;" width="15.515" height="15.515"/>
	<rect x="121.018" y="63.612" style="fill:#193651;" width="15.515" height="15.515"/>
</g>
<rect x="162.909" y="63.612" style="fill:#193651;" width="15.515" height="15.515"/>
<rect x="69.042" y="133.43" style="fill:#FFFFFF;" width="159.03" height="109.382"/>
<polygon style="fill:#2EA2DB;" points="124.897,162.133 124.897,214.109 171.442,187.733 "/>
<g>
	<rect x="259.879" y="133.43" style="fill:#FFFFFF;" width="25.6" height="25.6"/>
	<rect x="259.879" y="175.321" style="fill:#FFFFFF;" width="25.6" height="25.6"/>
	<rect x="259.879" y="217.212" style="fill:#FFFFFF;" width="25.6" height="25.6"/>
</g>
<g>
	<rect x="316.509" y="141.188" style="fill:#193651;" width="111.709" height="10.085"/>
	<rect x="316.509" y="183.079" style="fill:#193651;" width="111.709" height="10.085"/>
	<rect x="316.509" y="224.97" style="fill:#193651;" width="111.709" height="10.085"/>
	<rect x="207.903" y="270.739" style="fill:#193651;" width="219.539" height="10.085"/>
	<rect x="69.042" y="270.739" style="fill:#193651;" width="100.073" height="10.085"/>
	<rect x="207.903" y="300.994" style="fill:#193651;" width="219.539" height="10.085"/>
	<rect x="69.042" y="300.994" style="fill:#193651;" width="100.073" height="10.085"/>
</g>
<g>
</g>
<g>
</g>
<g>
</g>
<g>
</g>
<g>
</g>
<g>
</g>
<g>
</g>
<g>
</g>
<g>
</g>
<g>
</g>
<g>
</g>
<g>
</g>
<g>
</g>
<g>
</g>
<g>
</g>
</svg>
